<?xml version="1.0" encoding="UTF-8"?>
<svg width="20px" height="20px" viewBox="0 0 20 20" version="1.1" xmlns="http://www.w3.org/2000/svg" xmlns:xlink="http://www.w3.org/1999/xlink">
    <!-- Generator: Sketch 59.1 (86144) - https://sketch.com -->
    <title>basket-outline-bold</title>
    <desc>Created with Sketch.</desc>
    <g id="basket-outline-bold" stroke="none" stroke-width="1" fill="none" fill-rule="evenodd">
        <path d="M12.0331,2.25 C12.9804509,2.25 13.7301,3.04232987 13.7301,4 L13.7301,4 L13.73,5.989 L15.396,5.9893 C15.8102136,5.9893 16.146,6.32508644 16.146,6.7393 L16.146,15.9683 C16.146,16.9835197 15.2898584,17.7893 14.257,17.7893 L6.14,17.7893 C5.1078896,17.7893 4.25,16.9833408 4.25,15.9683 L4.25,6.7393 C4.25,6.32508644 4.58578644,5.9893 5,5.9893 L6.666,5.989 L6.6661,4 C6.6661,3.09297076 7.33961915,2.33388612 8.21535284,2.25649502 L8.3631,2.25 Z M14.646,7.4893 L13.1021579,7.49011776 C13.0624349,7.49661925 13.0216622,7.5 12.9801,7.5 C12.9385378,7.5 12.8977651,7.49661925 12.8580421,7.49011776 L7.53815789,7.49011776 C7.49843487,7.49661925 7.45766225,7.5 7.4161,7.5 C7.37453775,7.5 7.33376513,7.49661925 7.29404211,7.49011776 L5.75,7.4893 L5.75,15.9683 C5.75,16.133252 5.91610266,16.2893 6.14,16.2893 L14.257,16.2893 C14.4810791,16.2893 14.646,16.1340803 14.646,15.9683 L14.646,7.4893 Z M12.0331,3.75 L8.3631,3.75 C8.26384343,3.75 8.1661,3.85323303 8.1661,4 L8.1661,4 L8.166,5.989 L12.23,5.989 L12.2301,4 C12.2301,3.87729445 12.1625873,3.78548704 12.082339,3.75829306 L12.0331,3.75 Z" id="Icon" fill="#000000" fill-rule="nonzero"></path>
    </g>
</svg>