<svg width="20" height="20" viewBox="0 0 20 20" fill="none" xmlns="http://www.w3.org/2000/svg">
<path d="M17.5 16.6667H19.1667V18.3333H0.833328V16.6667H2.49999V2.5C2.49999 2.27898 2.58779 2.06702 2.74407 1.91074C2.90035 1.75446 3.11231 1.66666 3.33333 1.66666H16.6667C16.8877 1.66666 17.0996 1.75446 17.2559 1.91074C17.4122 2.06702 17.5 2.27898 17.5 2.5V16.6667ZM15.8333 16.6667V3.33333H4.16666V16.6667H15.8333ZM6.66666 9.16666H9.16666V10.8333H6.66666V9.16666ZM6.66666 5.83333H9.16666V7.5H6.66666V5.83333ZM6.66666 12.5H9.16666V14.1667H6.66666V12.5ZM10.8333 12.5H13.3333V14.1667H10.8333V12.5ZM10.8333 9.16666H13.3333V10.8333H10.8333V9.16666ZM10.8333 5.83333H13.3333V7.5H10.8333V5.83333Z" fill="black"/>
</svg>
