<svg width="20" height="20" viewBox="0 0 20 20" fill="none" xmlns="http://www.w3.org/2000/svg">
<path d="M14.1667 2.5H17.5C17.721 2.5 17.933 2.5878 18.0893 2.74408C18.2455 2.90036 18.3333 3.11232 18.3333 3.33334V16.6667C18.3333 16.8877 18.2455 17.0996 18.0893 17.2559C17.933 17.4122 17.721 17.5 17.5 17.5H2.5C2.27898 17.5 2.06702 17.4122 1.91074 17.2559C1.75446 17.0996 1.66666 16.8877 1.66666 16.6667V3.33334C1.66666 3.11232 1.75446 2.90036 1.91074 2.74408C2.06702 2.5878 2.27898 2.5 2.5 2.5H5.83333V0.833336H7.5V2.5H12.5V0.833336H14.1667V2.5ZM12.5 4.16667H7.5V5.83334H5.83333V4.16667H3.33333V7.5H16.6667V4.16667H14.1667V5.83334H12.5V4.16667ZM16.6667 9.16667H3.33333V15.8333H16.6667V9.16667Z" fill="black"/>
</svg>
