<svg width="20" height="20" viewBox="0 0 20 20" fill="none" xmlns="http://www.w3.org/2000/svg">
<path d="M14.1667 5H18.3333V6.66667H16.6667V17.5C16.6667 17.721 16.5789 17.933 16.4226 18.0893C16.2663 18.2455 16.0544 18.3333 15.8333 18.3333H4.16667C3.94566 18.3333 3.7337 18.2455 3.57742 18.0893C3.42114 17.933 3.33334 17.721 3.33334 17.5V6.66667H1.66667V5H5.83334V2.5C5.83334 2.27899 5.92114 2.06703 6.07742 1.91075C6.2337 1.75447 6.44566 1.66667 6.66667 1.66667H13.3333C13.5544 1.66667 13.7663 1.75447 13.9226 1.91075C14.0789 2.06703 14.1667 2.27899 14.1667 2.5V5ZM15 6.66667H5.00001V16.6667H15V6.66667ZM7.50001 9.16667H9.16667V14.1667H7.50001V9.16667ZM10.8333 9.16667H12.5V14.1667H10.8333V9.16667ZM7.50001 3.33333V5H12.5V3.33333H7.50001Z" fill="black"/>
</svg>
