<svg width="40" height="48" viewBox="0 0 40 48" fill="none" xmlns="http://www.w3.org/2000/svg">
<path d="M20.6927 0.00409353C17.8597 1.47751 15.3068 2.86013 12.5807 4.42638C13.5399 4.96331 14.4991 5.50621 15.4571 6.04519C17.1684 5.05703 18.8796 4.07061 20.5898 3.08222C21.9489 3.91926 23.309 4.76159 24.6678 5.60159C25.6172 5.06457 26.5673 4.53363 27.5177 3.99886C25.5715 2.87524 21.8035 0.643081 20.6897 0L20.6927 0.00409353ZM33.9712 8.05579H33.9786C33.9786 8.05526 33.9786 8.05579 33.9786 8.05579H33.9712ZM33.9786 8.05579C33.0217 8.63876 32.0067 9.08568 31.1169 9.62173C32.6224 10.5516 34.1262 11.4816 35.6312 12.4114C34.1519 13.2658 32.6732 14.1292 31.1933 14.9881C31.415 15.1115 32.5297 15.7601 32.7412 15.8832C32.7676 16.3244 32.7887 16.9109 32.8151 17.4663C34.241 16.6385 35.6661 15.8103 37.0929 14.9822V20.5086C38.0418 19.9361 38.9977 19.374 39.956 18.8149C39.956 16.5611 39.9538 12.0981 39.9538 11.5466C37.8512 10.3641 35.8919 9.22236 33.9787 8.05579H33.9786ZM5.81157 8.33495C5.81896 8.33495 5.82351 8.34348 5.82891 8.34632C5.8363 8.34632 5.83857 8.33779 5.84312 8.33779L5.81157 8.33495ZM5.82891 8.34632C3.99745 9.40734 1.79946 10.7183 0.00313483 11.8275C0.00730797 14.2201 0.00864461 16.5116 0.00864461 18.8968C0.954381 19.4605 1.90132 20.0178 2.84826 20.5788V15.0729C4.19398 15.8565 5.54084 16.635 6.88656 17.416V15.6356C7.32694 15.3803 7.77596 15.117 8.22341 14.8437C6.9004 14.0776 5.57656 13.3084 4.25408 12.5403C5.74143 11.6859 7.23089 10.8217 8.71846 9.96221C7.75137 9.43713 6.78953 8.89425 5.8289 8.34632L5.82891 8.34632ZM14.9809 18.7454H14.9395C14.9469 18.7454 14.9523 18.754 14.9583 18.7568C14.9657 18.7483 14.9734 18.7483 14.9802 18.7454H14.9809ZM14.959 18.7568C14.5259 18.9993 14.0934 19.243 13.6648 19.4854V21.3584C15.2658 22.2876 16.8666 23.2173 18.4685 24.1466V29.8346C18.9444 30.1163 19.4282 30.4077 19.9081 30.6896C20.4189 30.3901 20.9295 30.081 21.4403 29.7818V24.0614C22.9498 23.1809 24.4601 22.3101 25.9693 21.4348V19.6691C25.4849 19.3962 24.9963 19.1225 24.5091 18.8493C22.945 19.7576 21.3805 20.6663 19.8156 21.5744C18.1969 20.6356 16.5779 19.6965 14.959 18.7568L14.959 18.7568ZM0 26.5911C0 29.5061 0.0130132 32.8616 0.0130132 35.7674C2.57472 37.2038 4.86515 38.4892 7.22759 39.8563V36.5569C5.78574 35.7202 4.34344 34.8917 2.9028 34.0595V28.2863C1.94871 27.7228 0.996055 27.1555 0.0425721 26.5911H0ZM39.9323 26.5911C38.9857 27.1545 38.0387 27.7137 37.0912 28.2745V34.0169C35.5576 34.9019 34.0236 35.7877 32.4902 36.6729V39.9959C34.8849 38.6209 37.6572 36.889 40 35.4436C39.9761 32.3339 39.9749 29.768 39.9749 26.5911H39.9323ZM18.4905 37.4912V43.0837C16.9651 42.2028 15.4399 41.3212 13.9145 40.4395V43.758C15.7995 44.843 18.0015 46.1073 19.9109 47.136C22.0753 45.904 23.7965 44.9253 25.7459 43.7859V40.5276C24.3203 41.3464 22.8947 42.1731 21.4697 42.9955V37.5455C20.9767 37.8184 20.4899 38.0834 19.9992 38.3564C19.4974 38.0657 18.9981 37.7833 18.4978 37.4926L18.4905 37.4912Z" fill="#041E42"/>
</svg>
