<svg width="20" height="20" viewBox="0 0 20 20" fill="none" xmlns="http://www.w3.org/2000/svg">
<path d="M5.14167 15C5.31384 14.5121 5.63312 14.0895 6.0555 13.7907C6.47788 13.4918 6.98257 13.3313 7.5 13.3313C8.01743 13.3313 8.52212 13.4918 8.9445 13.7907C9.36688 14.0895 9.68617 14.5121 9.85833 15H18.3333V16.6667H9.85833C9.68617 17.1546 9.36688 17.5771 8.9445 17.876C8.52212 18.1749 8.01743 18.3354 7.5 18.3354C6.98257 18.3354 6.47788 18.1749 6.0555 17.876C5.63312 17.5771 5.31384 17.1546 5.14167 16.6667H1.66667V15H5.14167ZM10.1417 9.16667C10.3138 8.67872 10.6331 8.25619 11.0555 7.95732C11.4779 7.65845 11.9826 7.49796 12.5 7.49796C13.0174 7.49796 13.5221 7.65845 13.9445 7.95732C14.3669 8.25619 14.6862 8.67872 14.8583 9.16667H18.3333V10.8333H14.8583C14.6862 11.3213 14.3669 11.7438 13.9445 12.0427C13.5221 12.3415 13.0174 12.502 12.5 12.502C11.9826 12.502 11.4779 12.3415 11.0555 12.0427C10.6331 11.7438 10.3138 11.3213 10.1417 10.8333H1.66667V9.16667H10.1417ZM5.14167 3.33333C5.31384 2.84539 5.63312 2.42286 6.0555 2.12399C6.47788 1.82512 6.98257 1.66462 7.5 1.66462C8.01743 1.66462 8.52212 1.82512 8.9445 2.12399C9.36688 2.42286 9.68617 2.84539 9.85833 3.33333H18.3333V5H9.85833C9.68617 5.48794 9.36688 5.91047 8.9445 6.20934C8.52212 6.50821 8.01743 6.66871 7.5 6.66871C6.98257 6.66871 6.47788 6.50821 6.0555 6.20934C5.63312 5.91047 5.31384 5.48794 5.14167 5H1.66667V3.33333H5.14167ZM7.5 5C7.72101 5 7.93298 4.9122 8.08926 4.75592C8.24554 4.59964 8.33333 4.38768 8.33333 4.16667C8.33333 3.94565 8.24554 3.73369 8.08926 3.57741C7.93298 3.42113 7.72101 3.33333 7.5 3.33333C7.27899 3.33333 7.06703 3.42113 6.91075 3.57741C6.75446 3.73369 6.66667 3.94565 6.66667 4.16667C6.66667 4.38768 6.75446 4.59964 6.91075 4.75592C7.06703 4.9122 7.27899 5 7.5 5ZM12.5 10.8333C12.721 10.8333 12.933 10.7455 13.0893 10.5893C13.2455 10.433 13.3333 10.221 13.3333 10C13.3333 9.77899 13.2455 9.56702 13.0893 9.41074C12.933 9.25446 12.721 9.16667 12.5 9.16667C12.279 9.16667 12.067 9.25446 11.9107 9.41074C11.7545 9.56702 11.6667 9.77899 11.6667 10C11.6667 10.221 11.7545 10.433 11.9107 10.5893C12.067 10.7455 12.279 10.8333 12.5 10.8333ZM7.5 16.6667C7.72101 16.6667 7.93298 16.5789 8.08926 16.4226C8.24554 16.2663 8.33333 16.0543 8.33333 15.8333C8.33333 15.6123 8.24554 15.4004 8.08926 15.2441C7.93298 15.0878 7.72101 15 7.5 15C7.27899 15 7.06703 15.0878 6.91075 15.2441C6.75446 15.4004 6.66667 15.6123 6.66667 15.8333C6.66667 16.0543 6.75446 16.2663 6.91075 16.4226C7.06703 16.5789 7.27899 16.6667 7.5 16.6667Z" fill="black"/>
</svg>
