<svg width="20" height="20" viewBox="0 0 20 20" fill="none" xmlns="http://www.w3.org/2000/svg">
<path d="M7.5 1.66917V1.66667H16.665C17.125 1.66667 17.5 2.04583 17.5 2.49333V17.5067C17.4998 17.726 17.4125 17.9363 17.2573 18.0913C17.1022 18.2463 16.8918 18.3333 16.6725 18.3333H3.3275C3.21806 18.3326 3.10985 18.3103 3.00904 18.2677C2.90822 18.2251 2.81679 18.1631 2.73994 18.0851C2.6631 18.0072 2.60236 17.9149 2.56119 17.8135C2.52002 17.7121 2.49923 17.6036 2.5 17.4942V6.66667L7.5 1.66917ZM4.85833 6.66667H7.5V4.025L4.85833 6.66667ZM9.16666 3.33333V7.5C9.16666 7.72101 9.07887 7.93297 8.92259 8.08926C8.76631 8.24554 8.55435 8.33333 8.33333 8.33333H4.16666V16.6667H15.8333V3.33333H9.16666Z" fill="black"/>
</svg>
