<svg width="20" height="20" viewBox="0 0 20 20" fill="none" xmlns="http://www.w3.org/2000/svg">
<path d="M15.8333 8.33333H16.6667C16.8877 8.33333 17.0996 8.42113 17.2559 8.57741C17.4122 8.73369 17.5 8.94565 17.5 9.16667V17.5C17.5 17.721 17.4122 17.933 17.2559 18.0893C17.0996 18.2455 16.8877 18.3333 16.6667 18.3333H3.33333C3.11232 18.3333 2.90036 18.2455 2.74408 18.0893C2.5878 17.933 2.5 17.721 2.5 17.5V9.16667C2.5 8.94565 2.5878 8.73369 2.74408 8.57741C2.90036 8.42113 3.11232 8.33333 3.33333 8.33333H4.16667V7.5C4.16667 6.73396 4.31755 5.97541 4.6107 5.26768C4.90386 4.55995 5.33354 3.91688 5.87521 3.37521C6.41689 2.83353 7.05995 2.40385 7.76768 2.1107C8.47541 1.81755 9.23396 1.66667 10 1.66667C10.766 1.66667 11.5246 1.81755 12.2323 2.1107C12.9401 2.40385 13.5831 2.83353 14.1248 3.37521C14.6665 3.91688 15.0961 4.55995 15.3893 5.26768C15.6825 5.97541 15.8333 6.73396 15.8333 7.5V8.33333ZM4.16667 10V16.6667H15.8333V10H4.16667ZM9.16667 11.6667H10.8333V15H9.16667V11.6667ZM14.1667 8.33333V7.5C14.1667 6.39493 13.7277 5.33512 12.9463 4.55372C12.1649 3.77232 11.1051 3.33333 10 3.33333C8.89493 3.33333 7.83512 3.77232 7.05372 4.55372C6.27232 5.33512 5.83333 6.39493 5.83333 7.5V8.33333H14.1667Z" fill="black"/>
</svg>
