<svg width="20" height="20" viewBox="0 0 20 20" fill="none" xmlns="http://www.w3.org/2000/svg">
<path d="M5.83333 8.33333H16.6667C16.8877 8.33333 17.0996 8.42113 17.2559 8.57741C17.4122 8.73369 17.5 8.94565 17.5 9.16667V17.5C17.5 17.721 17.4122 17.933 17.2559 18.0893C17.0996 18.2455 16.8877 18.3333 16.6667 18.3333H3.33333C3.11232 18.3333 2.90036 18.2455 2.74408 18.0893C2.5878 17.933 2.5 17.721 2.5 17.5V9.16667C2.5 8.94565 2.5878 8.73369 2.74408 8.57741C2.90036 8.42113 3.11232 8.33333 3.33333 8.33333H4.16667V7.5C4.16619 6.18559 4.60965 4.90954 5.42516 3.8787C6.24067 2.84785 7.38042 2.12265 8.65967 1.82063C9.93891 1.51862 11.2827 1.6575 12.4731 2.21476C13.6635 2.77202 14.6309 3.715 15.2183 4.89083L13.7275 5.63583C13.3079 4.79585 12.6169 4.12221 11.7665 3.72412C10.9161 3.32604 9.95622 3.22685 9.0424 3.44265C8.12858 3.65844 7.31444 4.17656 6.73196 4.91301C6.14949 5.64945 5.83283 6.56105 5.83333 7.5V8.33333ZM4.16667 10V16.6667H15.8333V10H4.16667ZM8.33333 12.5H11.6667V14.1667H8.33333V12.5Z" fill="black"/>
</svg>
