<svg width="20" height="20" viewBox="0 0 20 20" fill="none" xmlns="http://www.w3.org/2000/svg">
<path d="M3.33333 12.5H5V16.6667H15V3.33333H5V7.5H3.33333V2.5C3.33333 2.27899 3.42113 2.06702 3.57741 1.91074C3.73369 1.75446 3.94565 1.66667 4.16667 1.66667H15.8333C16.0543 1.66667 16.2663 1.75446 16.4226 1.91074C16.5789 2.06702 16.6667 2.27899 16.6667 2.5V17.5C16.6667 17.721 16.5789 17.933 16.4226 18.0893C16.2663 18.2455 16.0543 18.3333 15.8333 18.3333H4.16667C3.94565 18.3333 3.73369 18.2455 3.57741 18.0893C3.42113 17.933 3.33333 17.721 3.33333 17.5V12.5ZM8.33333 9.16667V6.66667L12.5 10L8.33333 13.3333V10.8333H1.66667V9.16667H8.33333Z" fill="black"/>
</svg>
