<svg width="20" height="20" viewBox="0 0 20 20" fill="none" xmlns="http://www.w3.org/2000/svg">
<path d="M16.6667 14.1667H18.3333V15.8333H1.66667V14.1667H3.33333V8.33333C3.33333 6.56522 4.03571 4.86953 5.28596 3.61929C6.5362 2.36905 8.23189 1.66667 10 1.66667C11.7681 1.66667 13.4638 2.36905 14.714 3.61929C15.9643 4.86953 16.6667 6.56522 16.6667 8.33333V14.1667ZM15 14.1667V8.33333C15 7.00725 14.4732 5.73548 13.5355 4.7978C12.5979 3.86012 11.3261 3.33333 10 3.33333C8.67392 3.33333 7.40215 3.86012 6.46447 4.7978C5.52679 5.73548 5 7.00725 5 8.33333V14.1667H15ZM7.5 17.5H12.5V19.1667H7.5V17.5Z" fill="black"/>
</svg>
