<svg width="20" height="20" viewBox="0 0 20 20" fill="none" xmlns="http://www.w3.org/2000/svg">
<path d="M5 15.8333H2.5C2.27899 15.8333 2.06703 15.7455 1.91075 15.5893C1.75447 15.433 1.66667 15.221 1.66667 15V6.66666C1.66667 6.44565 1.75447 6.23369 1.91075 6.07741C2.06703 5.92113 2.27899 5.83333 2.5 5.83333H5V2.5C5 2.27898 5.0878 2.06702 5.24408 1.91074C5.40036 1.75446 5.61232 1.66666 5.83333 1.66666H14.1667C14.3877 1.66666 14.5996 1.75446 14.7559 1.91074C14.9122 2.06702 15 2.27898 15 2.5V5.83333H17.5C17.721 5.83333 17.933 5.92113 18.0893 6.07741C18.2455 6.23369 18.3333 6.44565 18.3333 6.66666V15C18.3333 15.221 18.2455 15.433 18.0893 15.5893C17.933 15.7455 17.721 15.8333 17.5 15.8333H15V17.5C15 17.721 14.9122 17.933 14.7559 18.0893C14.5996 18.2455 14.3877 18.3333 14.1667 18.3333H5.83333C5.61232 18.3333 5.40036 18.2455 5.24408 18.0893C5.0878 17.933 5 17.721 5 17.5V15.8333ZM5 14.1667V13.3333C5 13.1123 5.0878 12.9004 5.24408 12.7441C5.40036 12.5878 5.61232 12.5 5.83333 12.5H14.1667C14.3877 12.5 14.5996 12.5878 14.7559 12.7441C14.9122 12.9004 15 13.1123 15 13.3333V14.1667H16.6667V7.5H3.33333V14.1667H5ZM6.66667 3.33333V5.83333H13.3333V3.33333H6.66667ZM6.66667 14.1667V16.6667H13.3333V14.1667H6.66667ZM4.16667 8.33333H6.66667V10H4.16667V8.33333Z" fill="black"/>
</svg>
