<svg width="20" height="20" viewBox="0 0 20 20" fill="none" xmlns="http://www.w3.org/2000/svg">
<path d="M10 18.3333C5.3975 18.3333 1.66667 14.6025 1.66667 10C1.66667 5.3975 5.3975 1.66666 10 1.66666C14.6025 1.66666 18.3333 5.3975 18.3333 10C18.3333 14.6025 14.6025 18.3333 10 18.3333ZM10 16.6667C11.7681 16.6667 13.4638 15.9643 14.714 14.714C15.9643 13.4638 16.6667 11.7681 16.6667 10C16.6667 8.23189 15.9643 6.5362 14.714 5.28595C13.4638 4.03571 11.7681 3.33333 10 3.33333C8.23189 3.33333 6.5362 4.03571 5.28596 5.28595C4.03571 6.5362 3.33333 8.23189 3.33333 10C3.33333 11.7681 4.03571 13.4638 5.28596 14.714C6.5362 15.9643 8.23189 16.6667 10 16.6667ZM10 14.1667C8.89493 14.1667 7.83512 13.7277 7.05372 12.9463C6.27232 12.1649 5.83333 11.1051 5.83333 10C5.83333 8.89493 6.27232 7.83512 7.05372 7.05372C7.83512 6.27232 8.89493 5.83333 10 5.83333C11.1051 5.83333 12.1649 6.27232 12.9463 7.05372C13.7277 7.83512 14.1667 8.89493 14.1667 10C14.1667 11.1051 13.7277 12.1649 12.9463 12.9463C12.1649 13.7277 11.1051 14.1667 10 14.1667Z" fill="black"/>
</svg>
