<svg width="20" height="20" viewBox="0 0 20 20" fill="none" xmlns="http://www.w3.org/2000/svg">
<path d="M4.5525 3.69416C6.06463 2.38388 7.99916 1.66387 10 1.66666C14.6025 1.66666 18.3333 5.3975 18.3333 10C18.3333 11.78 17.775 13.43 16.825 14.7833L14.1667 10H16.6667C16.6668 8.69302 16.2827 7.41483 15.5622 6.32438C14.8417 5.23392 13.8166 4.3793 12.6143 3.86677C11.412 3.35424 10.0856 3.20642 8.79996 3.44168C7.51433 3.67694 6.32621 4.28491 5.38333 5.19L4.5525 3.69416ZM15.4475 16.3058C13.9354 17.6161 12.0008 18.3361 10 18.3333C5.3975 18.3333 1.66667 14.6025 1.66667 10C1.66667 8.22 2.225 6.57 3.175 5.21666L5.83333 10H3.33333C3.33323 11.307 3.71729 12.5852 4.43778 13.6756C5.15827 14.7661 6.18339 15.6207 7.38568 16.1332C8.58798 16.6458 9.91441 16.7936 11.2 16.5583C12.4857 16.3231 13.6738 15.7151 14.6167 14.81L15.4475 16.3058Z" fill="black"/>
</svg>
