<svg width="20" height="20" viewBox="0 0 20 20" fill="none" xmlns="http://www.w3.org/2000/svg">
<path d="M3.33333 13.3333V3.33333H1.66667V1.66666H4.16667C4.38768 1.66666 4.59964 1.75446 4.75592 1.91074C4.9122 2.06702 5 2.27898 5 2.5V12.5H15.365L17.0317 5.83333H6.66667V4.16666H18.1C18.2267 4.16667 18.3517 4.19555 18.4655 4.25111C18.5793 4.30667 18.679 4.38746 18.7569 4.48732C18.8349 4.58718 18.889 4.7035 18.9152 4.82742C18.9415 4.95135 18.9391 5.07962 18.9083 5.2025L16.825 13.5358C16.7799 13.716 16.6758 13.876 16.5293 13.9903C16.3829 14.1046 16.2024 14.1667 16.0167 14.1667H4.16667C3.94565 14.1667 3.73369 14.0789 3.57741 13.9226C3.42113 13.7663 3.33333 13.5543 3.33333 13.3333ZM5 19.1667C4.55797 19.1667 4.13405 18.9911 3.82149 18.6785C3.50893 18.3659 3.33333 17.942 3.33333 17.5C3.33333 17.058 3.50893 16.634 3.82149 16.3215C4.13405 16.0089 4.55797 15.8333 5 15.8333C5.44203 15.8333 5.86595 16.0089 6.17851 16.3215C6.49107 16.634 6.66667 17.058 6.66667 17.5C6.66667 17.942 6.49107 18.3659 6.17851 18.6785C5.86595 18.9911 5.44203 19.1667 5 19.1667ZM15 19.1667C14.558 19.1667 14.134 18.9911 13.8215 18.6785C13.5089 18.3659 13.3333 17.942 13.3333 17.5C13.3333 17.058 13.5089 16.634 13.8215 16.3215C14.134 16.0089 14.558 15.8333 15 15.8333C15.442 15.8333 15.866 16.0089 16.1785 16.3215C16.4911 16.634 16.6667 17.058 16.6667 17.5C16.6667 17.942 16.4911 18.3659 16.1785 18.6785C15.866 18.9911 15.442 19.1667 15 19.1667Z" fill="black"/>
</svg>
