<svg width="20" height="20" viewBox="0 0 20 20" fill="none" xmlns="http://www.w3.org/2000/svg">
<path fill-rule="evenodd" clip-rule="evenodd" d="M13.6417 5.64509V2.87671C13.6417 1.84265 12.7453 1 11.6459 1H7.65559C6.55618 1 5.661 1.84265 5.661 2.87671V5.64509H3.35013C3.15756 5.64509 3 5.80148 3 5.99522V17.4177C3 18.1075 3.59756 18.67 4.32933 18.67H14.971C15.7051 18.67 16.3015 18.1075 16.3015 17.4177V5.99522C16.3015 5.80148 16.1451 5.64509 15.9514 5.64509H13.6417ZM12.3112 5.64509H6.99034V2.87671C6.99034 2.53124 7.28912 2.25114 7.6556 2.25114H11.6459C12.0124 2.25114 12.3112 2.53124 12.3112 2.87671V5.64509Z" fill="black"/>
</svg>
