<svg width="20" height="20" viewBox="0 0 20 20" fill="none" xmlns="http://www.w3.org/2000/svg">
<path d="M12.0958 4.16666L14.2675 1.99416C14.3449 1.91668 14.4368 1.85522 14.538 1.81328C14.6391 1.77134 14.7476 1.74976 14.8571 1.74976C14.9666 1.74976 15.075 1.77134 15.1762 1.81328C15.2774 1.85522 15.3693 1.91668 15.4467 1.99416L18.9817 5.52999C19.1379 5.68627 19.2257 5.89819 19.2257 6.11916C19.2257 6.34013 19.1379 6.55206 18.9817 6.70833L15.8333 9.85666V17.5C15.8333 17.721 15.7455 17.933 15.5893 18.0893C15.433 18.2455 15.221 18.3333 15 18.3333H5C4.77899 18.3333 4.56703 18.2455 4.41074 18.0893C4.25446 17.933 4.16667 17.721 4.16667 17.5V9.85666L1.01833 6.70833C0.862108 6.55206 0.774345 6.34013 0.774345 6.11916C0.774345 5.89819 0.862108 5.68627 1.01833 5.52999L4.55333 1.99416C4.63073 1.91668 4.72263 1.85522 4.8238 1.81328C4.92496 1.77134 5.0334 1.74976 5.14292 1.74976C5.25243 1.74976 5.36087 1.77134 5.46203 1.81328C5.5632 1.85522 5.65511 1.91668 5.7325 1.99416L7.90417 4.16666H12.0958ZM12.7858 5.83333H7.21417L5.14333 3.76249L2.78583 6.11916L5.83333 9.16666V16.6667H14.1667V9.16666L17.2142 6.11916L14.8567 3.76249L12.7858 5.83333Z" fill="black"/>
</svg>
