<svg width="20" height="20" viewBox="0 0 20 20" fill="none" xmlns="http://www.w3.org/2000/svg">
<path d="M16.6667 18.3333H15V16.6667C15 16.0036 14.7366 15.3677 14.2678 14.8989C13.7989 14.4301 13.163 14.1667 12.5 14.1667H7.5C6.83696 14.1667 6.20107 14.4301 5.73223 14.8989C5.26339 15.3677 5 16.0036 5 16.6667V18.3333H3.33333V16.6667C3.33333 15.5616 3.77232 14.5018 4.55372 13.7204C5.33512 12.939 6.39493 12.5 7.5 12.5H12.5C13.6051 12.5 14.6649 12.939 15.4463 13.7204C16.2277 14.5018 16.6667 15.5616 16.6667 16.6667V18.3333ZM10 10.8333C9.34339 10.8333 8.69321 10.704 8.08658 10.4527C7.47995 10.2015 6.92876 9.83316 6.46446 9.36887C6.00017 8.90458 5.63187 8.35338 5.3806 7.74675C5.12933 7.14012 5 6.48995 5 5.83334C5 5.17673 5.12933 4.52655 5.3806 3.91992C5.63187 3.31329 6.00017 2.76209 6.46446 2.2978C6.92876 1.83351 7.47995 1.46521 8.08658 1.21394C8.69321 0.962665 9.34339 0.833336 10 0.833336C11.3261 0.833336 12.5979 1.36012 13.5355 2.2978C14.4732 3.23548 15 4.50725 15 5.83334C15 7.15942 14.4732 8.43119 13.5355 9.36887C12.5979 10.3066 11.3261 10.8333 10 10.8333V10.8333ZM10 9.16667C10.8841 9.16667 11.7319 8.81548 12.357 8.19036C12.9821 7.56524 13.3333 6.71739 13.3333 5.83334C13.3333 4.94928 12.9821 4.10143 12.357 3.47631C11.7319 2.85119 10.8841 2.5 10 2.5C9.11594 2.5 8.2681 2.85119 7.64298 3.47631C7.01785 4.10143 6.66667 4.94928 6.66667 5.83334C6.66667 6.71739 7.01785 7.56524 7.64298 8.19036C8.2681 8.81548 9.11594 9.16667 10 9.16667V9.16667Z" fill="black"/>
</svg>
